<svg xmlns="http://www.w3.org/2000/svg" width="11" height="12" viewBox="0 0 11 12">
  <metadata><?xpacket begin="﻿" id="W5M0MpCehiHzreSzNTczkc9d"?>
<x:xmpmeta xmlns:x="adobe:ns:meta/" x:xmptk="Adobe XMP Core 5.6-c140 79.160451, 2017/05/06-01:08:21        ">
   <rdf:RDF xmlns:rdf="http://www.w3.org/1999/02/22-rdf-syntax-ns#">
      <rdf:Description rdf:about=""/>
   </rdf:RDF>
</x:xmpmeta>
                                                                                                    
                                                                                                    
                                                                                                    
                                                                                                    
                                                                                                    
                                                                                                    
                                                                                                    
                                                                                                    
                                                                                                    
                                                                                                    
                                                                                                    
                                                                                                    
                                                                                                    
                                                                                                    
                                                                                                    
                                                                                                    
                                                                                                    
                                                                                                    
                                                                                                    
                                                                                                    
                           
<?xpacket end="w"?></metadata>
<defs>
    <style>
      .cls-1 {
        fill: #c8cace;
        fill-rule: evenodd;
      }
    </style>
  </defs>
  <path id="trash_2" data-name="trash 2" class="cls-1" d="M238,61h0V60h2V58h7v2h2v1H238Zm3-1h5V59h-5v1Zm7,10h0Zm-8.1-10h7.2a0.954,0.954,0,0,1,.9,1v8a0.954,0.954,0,0,1-.9,1h-7.2a0.954,0.954,0,0,1-.9-1V61A0.954,0.954,0,0,1,239.9,60Zm1.1,2h1v6h-1V62Zm2,0h1v6h-1V62Zm2,0h1v6h-1V62Z" transform="translate(-238 -58)"/>
</svg>
